<?xml version="1.0" encoding="iso-8859-1"?>
<!-- Generator: Adobe Illustrator 17.1.0, SVG Export Plug-In . SVG Version: 6.00 Build 0)  -->
<!DOCTYPE svg PUBLIC "-//W3C//DTD SVG 1.1//EN" "http://www.w3.org/Graphics/SVG/1.1/DTD/svg11.dtd">
<svg version="1.1" id="Capa_1" xmlns="http://www.w3.org/2000/svg" xmlns:xlink="http://www.w3.org/1999/xlink" x="0px" y="0px"
	 viewBox="0 0 203.443 203.443" style="enable-background:new 0 0 203.443 203.443;" xml:space="preserve">
<path d="M178.856,93.273h-20.438v-1.598c0-2.209-1.791-4-4-4H73.566c-2.209,0-4,1.791-4,4v1.598H57.397
	c-1.952-13.896-13.913-24.625-28.34-24.625h-4v24.625h-4.412V59.191c0-5.507-4.48-9.986-9.987-9.986H9.987
	C4.48,49.205,0,53.684,0,59.191v95.048h20.646v-5.564h160.828v5.564h21.97v-9.564v-21.051v-4.687v-0.024v-1.053
	C203.443,104.302,192.414,93.273,178.856,93.273z M178.856,101.273c8.138,0,14.91,5.897,16.307,13.64h-36.744v-13.64H178.856z
	 M25.058,101.273h32.625h11.884v13.64H20.646v-13.64H25.058z"/>
<g>
</g>
<g>
</g>
<g>
</g>
<g>
</g>
<g>
</g>
<g>
</g>
<g>
</g>
<g>
</g>
<g>
</g>
<g>
</g>
<g>
</g>
<g>
</g>
<g>
</g>
<g>
</g>
<g>
</g>
</svg>
