<?xml version="1.0" standalone="no"?>
<!DOCTYPE svg PUBLIC "-//W3C//DTD SVG 20010904//EN"
 "http://www.w3.org/TR/2001/REC-SVG-20010904/DTD/svg10.dtd">
<svg version="1.0" xmlns="http://www.w3.org/2000/svg"
 width="840.000000pt" height="980.000000pt" viewBox="0 0 840.000000 980.000000"
 preserveAspectRatio="xMidYMid meet">

<g transform="translate(0.000000,980.000000) scale(0.100000,-0.100000)"
fill="#000000" stroke="none">
<path d="M560 9785 c-181 -37 -342 -147 -446 -306 -53 -82 -81 -152 -100 -247
-21 -112 -21 -8553 0 -8665 18 -92 46 -161 101 -247 100 -155 270 -271 449
-305 115 -22 7154 -23 7269 -1 285 55 513 291 557 576 8 55 10 897 8 3230 l-3
3155 -28 100 c-51 188 -137 379 -227 509 -59 84 -1845 1876 -1935 1941 -143
103 -319 184 -515 238 l-115 32 -2475 2 c-2011 1 -2487 -1 -2540 -12z m4340
-1852 c0 -1287 -2 -1235 63 -1357 41 -78 135 -172 213 -213 122 -65 70 -63
1357 -63 l1167 0 0 -2800 0 -2800 -3500 0 -3500 0 0 4200 0 4200 2100 0 2100
0 0 -1167z m835 1065 c52 -26 175 -145 947 -916 l887 -887 40 -84 c23 -47 41
-91 41 -98 0 -11 -189 -13 -1025 -13 l-1025 0 0 1029 0 1030 38 -16 c20 -8 64
-29 97 -45z"/>
<path d="M2353 6286 c-102 -33 -176 -97 -222 -196 -22 -46 -26 -69 -26 -140 0
-76 4 -93 33 -152 38 -77 92 -130 171 -167 l56 -26 765 0 765 0 63 29 c71 33
136 98 173 173 20 40 24 64 24 143 0 85 -3 101 -28 150 -39 75 -98 133 -171
167 l-61 28 -750 2 c-600 2 -758 -1 -792 -11z"/>
<path d="M2353 4886 c-102 -32 -176 -97 -222 -196 -22 -46 -26 -69 -26 -140 0
-76 4 -93 33 -152 38 -77 92 -130 171 -167 l56 -26 1835 0 1835 0 56 26 c79
37 133 90 171 167 29 59 33 76 33 152 0 76 -4 93 -33 152 -38 77 -92 130 -171
167 l-56 26 -1820 2 c-1485 1 -1828 -1 -1862 -11z"/>
<path d="M2353 3486 c-102 -32 -176 -97 -222 -196 -22 -46 -26 -69 -26 -140 0
-76 4 -93 33 -152 38 -77 92 -130 171 -167 l56 -26 1835 0 1835 0 56 26 c79
37 133 90 171 167 29 59 33 76 33 152 0 76 -4 93 -33 152 -38 77 -92 130 -171
167 l-56 26 -1820 2 c-1485 1 -1828 -1 -1862 -11z"/>
</g>
</svg>
