<?xml version="1.0" standalone="no"?>
<!DOCTYPE svg PUBLIC "-//W3C//DTD SVG 20010904//EN"
 "http://www.w3.org/TR/2001/REC-SVG-20010904/DTD/svg10.dtd">
<svg version="1.0" xmlns="http://www.w3.org/2000/svg"
 width="980.000000pt" height="980.000000pt" viewBox="0 0 980.000000 980.000000"
 preserveAspectRatio="xMidYMid meet">

<g transform="translate(0.000000,980.000000) scale(0.100000,-0.100000)"
fill="#000000" stroke="none">
<path d="M4560 9789 c-1035 -75 -1998 -463 -2800 -1128 -150 -123 -501 -475
-622 -621 -881 -1068 -1270 -2403 -1098 -3765 119 -934 501 -1801 1124 -2545
98 -117 370 -393 496 -504 1328 -1166 3158 -1531 4825 -962 895 305 1700 879
2281 1627 735 946 1100 2126 1024 3314 -70 1094 -491 2109 -1216 2935 -112
128 -386 398 -509 501 -763 642 -1665 1026 -2665 1134 -174 19 -664 27 -840
14z m3651 -2454 c13 -8 -208 -202 -1190 -1041 -663 -568 -1379 -1173 -1591
-1345 -212 -172 -414 -337 -449 -366 -56 -45 -67 -51 -80 -39 -9 7 -214 174
-456 371 -398 323 -2847 2405 -2839 2414 2 2 18 7 36 11 51 12 6550 7 6569 -5z
m-5708 -1309 c642 -550 1167 -1003 1167 -1007 0 -4 -530 -517 -1177 -1138
-1006 -966 -1179 -1128 -1188 -1113 -12 20 -15 4226 -3 4255 5 12 12 15 21 10
8 -4 539 -458 1180 -1007z m6032 -1124 c0 -1399 -3 -2123 -10 -2134 -8 -14
-196 162 -1185 1112 -646 621 -1175 1134 -1175 1139 0 6 528 463 1174 1016
827 708 1178 1002 1185 995 8 -8 11 -650 11 -2128z m-4195 -421 c179 -145 381
-310 451 -367 l125 -102 460 374 c252 205 462 373 465 371 4 -1 541 -515 1193
-1142 828 -795 1183 -1142 1175 -1150 -14 -14 -6574 -14 -6588 0 -13 13 2366
2298 2382 2288 7 -4 158 -126 337 -272z"/>
</g>
</svg>
