<?xml version="1.0" standalone="no"?>
<!DOCTYPE svg PUBLIC "-//W3C//DTD SVG 20010904//EN"
 "http://www.w3.org/TR/2001/REC-SVG-20010904/DTD/svg10.dtd">
<svg version="1.0" xmlns="http://www.w3.org/2000/svg"
 width="980.000000pt" height="628.000000pt" viewBox="0 0 980.000000 628.000000"
 preserveAspectRatio="xMidYMid meet">

<g transform="translate(0.000000,628.000000) scale(0.100000,-0.100000)"
fill="#000000" stroke="none">
<path d="M1741 6239 c-33 -17 -72 -45 -85 -62 -44 -58 -392 -666 -988 -1727
-507 -901 -615 -1105 -652 -1230 -22 -73 -20 -103 8 -158 46 -88 126 -149 484
-366 267 -161 342 -197 419 -204 135 -11 219 56 347 276 23 38 44 62 54 62 24
0 77 -56 240 -255 l140 -170 -25 -40 c-46 -75 -83 -161 -94 -220 -23 -123 6
-282 73 -396 68 -115 203 -221 330 -260 40 -12 80 -25 88 -29 10 -4 23 -46 37
-113 30 -151 68 -223 173 -328 126 -128 240 -179 397 -179 l83 0 47 -97 c65
-135 160 -231 287 -294 l89 -44 149 -3 149 -4 20 -41 c65 -128 180 -244 305
-308 75 -38 162 -49 297 -37 135 11 228 72 353 233 l31 40 254 -72 c140 -40
292 -80 339 -89 110 -20 425 -30 505 -15 66 12 198 72 273 123 62 42 165 141
209 201 46 62 69 73 188 87 273 32 414 144 500 397 36 106 54 122 142 133 195
25 349 143 442 340 17 35 33 83 37 106 3 24 11 48 18 53 6 5 53 17 103 25 159
28 259 75 347 164 144 145 197 371 134 565 l-26 78 81 62 c114 86 215 174 335
291 119 116 101 117 179 -17 25 -43 67 -102 94 -132 61 -66 116 -89 214 -89
89 0 147 26 405 184 368 226 463 297 506 382 63 124 42 168 -689 1468 -356
633 -790 1396 -883 1553 -30 51 -69 104 -86 120 -46 39 -128 67 -198 67 -72 0
-111 -20 -416 -205 -374 -229 -439 -278 -480 -360 -23 -49 -26 -64 -23 -139 4
-81 7 -91 61 -195 l57 -110 -67 -15 c-108 -24 -190 -29 -303 -17 -101 11 -164
23 -554 106 -390 83 -641 104 -1016 87 -651 -31 -1068 -105 -1264 -223 -54
-33 -152 -126 -207 -198 l-26 -34 -139 22 c-354 58 -480 90 -593 154 -42 23
-224 136 -249 153 -1 2 15 36 37 76 53 95 76 176 67 231 -13 74 -44 142 -82
179 -71 68 -525 350 -704 438 -129 63 -182 67 -278 19z m340 -405 c162 -97
370 -236 390 -260 16 -19 54 53 -436 -824 -617 -1104 -1097 -1950 -1105 -1950
-15 0 -593 365 -603 381 -8 13 14 61 103 220 239 432 1207 2135 1382 2432 l69
117 29 -15 c16 -8 93 -54 171 -101z m6020 -193 c228 -389 1133 -1994 1332
-2362 l47 -86 -23 -20 c-53 -48 -556 -365 -584 -367 -14 -1 -174 278 -917
1604 -428 761 -634 1131 -641 1151 -5 12 24 36 117 96 160 105 325 207 413
255 l70 38 15 -21 c8 -12 85 -141 171 -288z m-2304 -545 c61 -9 221 -39 355
-67 525 -108 487 -103 683 -103 166 -1 188 1 283 27 162 43 147 50 240 -110
44 -76 281 -495 526 -932 l447 -794 -123 -117 c-227 -216 -366 -330 -436 -359
-28 -12 -34 -11 -55 5 -14 11 -97 76 -185 146 -472 374 -1189 879 -1585 1117
-467 281 -1040 581 -1107 581 -39 0 -192 -41 -330 -88 -168 -58 -162 -54 -267
-186 -175 -220 -323 -347 -507 -436 -130 -63 -195 -80 -335 -87 l-114 -6 6 64
c10 89 59 187 208 409 225 335 473 683 529 741 49 51 64 60 136 82 159 50 450
96 744 116 85 7 178 13 205 15 128 9 576 -3 682 -18z m-3103 -155 c224 -137
306 -169 564 -215 101 -19 189 -39 194 -44 14 -14 -9 -52 -172 -297 -155 -232
-236 -369 -261 -440 -15 -44 -19 -82 -19 -192 0 -76 5 -155 11 -177 15 -53 76
-116 150 -154 60 -31 65 -32 193 -32 273 0 446 50 661 191 149 97 275 213 453
417 35 40 81 81 102 92 43 22 229 90 246 90 10 0 305 -155 519 -273 568 -313
1112 -672 1714 -1131 406 -308 600 -477 642 -558 28 -54 25 -131 -7 -196 -67
-134 -220 -182 -357 -112 -99 52 -313 176 -737 428 -606 360 -712 417 -796
429 -37 5 -46 2 -79 -29 -34 -31 -39 -41 -43 -91 -7 -91 5 -107 137 -190 155
-99 522 -321 934 -566 l337 -202 0 -68 c0 -109 -44 -202 -111 -237 -34 -17
-152 -42 -220 -45 -42 -2 -73 14 -514 268 -737 425 -807 461 -868 449 -46 -9
-95 -53 -112 -101 -11 -34 -11 -45 1 -75 8 -19 22 -43 31 -53 22 -24 197 -134
448 -282 493 -290 707 -420 730 -440 21 -20 22 -27 14 -65 -22 -99 -86 -182
-153 -199 -72 -18 -205 -14 -277 9 -35 11 -181 76 -324 146 -555 269 -703 334
-759 334 -85 0 -154 -128 -115 -213 7 -15 44 -43 93 -70 85 -48 733 -372 824
-413 30 -13 52 -28 50 -33 -5 -16 -120 -112 -175 -148 -71 -45 -134 -57 -273
-50 -163 8 -373 53 -663 143 -15 5 -12 13 23 63 64 91 82 149 88 278 4 101 2
121 -21 196 -56 178 -179 303 -377 382 l-75 30 -7 100 c-11 170 -64 292 -178
405 -73 73 -135 110 -260 155 l-84 30 -13 91 c-20 153 -70 250 -180 355 -107
102 -237 152 -398 153 -95 1 -104 -1 -177 -36 -83 -40 -152 -97 -219 -184 -23
-30 -47 -54 -53 -54 -7 0 -29 23 -50 50 -129 169 -320 264 -493 245 -122 -13
-204 -44 -282 -106 -29 -22 -56 -37 -61 -33 -24 27 -321 382 -352 422 -21 26
-38 53 -38 60 0 19 19 54 328 607 452 808 672 1197 699 1233 15 20 31 31 39
28 8 -3 66 -37 128 -75z m-326 -2467 c130 -64 193 -226 134 -341 -30 -58 -158
-225 -229 -299 -61 -64 -95 -79 -155 -67 -78 15 -165 86 -209 173 -31 59 -31
139 -1 196 20 39 170 243 224 306 54 64 147 76 236 32z m967 -13 c95 -44 156
-136 162 -246 5 -82 16 -64 -183 -327 -71 -95 -213 -285 -314 -423 -234 -317
-231 -315 -305 -315 -118 0 -191 46 -244 152 -51 101 -46 132 44 273 101 158
257 379 431 610 165 218 180 236 230 270 45 31 120 33 179 6z m522 -615 c88
-46 160 -140 170 -223 10 -85 -38 -165 -338 -565 -199 -265 -261 -338 -302
-350 -50 -15 -130 3 -192 44 -81 54 -148 178 -130 240 14 47 77 149 181 294
260 362 410 548 458 570 36 17 112 12 153 -10z m516 -697 c63 -41 125 -115
138 -164 14 -52 6 -123 -22 -177 -56 -110 -349 -480 -392 -494 -141 -46 -320
101 -321 266 -1 50 4 62 56 142 145 221 310 431 352 448 12 5 48 9 82 9 52 1
67 -4 107 -30z"/>
</g>
</svg>
