<?xml version="1.0" standalone="no"?>
<!DOCTYPE svg PUBLIC "-//W3C//DTD SVG 20010904//EN"
 "http://www.w3.org/TR/2001/REC-SVG-20010904/DTD/svg10.dtd">
<svg version="1.0" xmlns="http://www.w3.org/2000/svg"
 width="1280.000000pt" height="776.000000pt" viewBox="0 0 1280.000000 776.000000"
 preserveAspectRatio="xMidYMid meet">
<g transform="translate(0.000000,776.000000) scale(0.100000,-0.100000)"
fill="#000000" stroke="none">
<path d="M5315 7750 c-33 -4 -118 -13 -190 -20 -1302 -119 -2486 -933 -3077
-2115 -278 -555 -408 -1105 -408 -1730 0 -351 31 -613 111 -937 361 -1472
1576 -2610 3072 -2877 103 -19 180 -28 507 -62 329 -34 921 46 1355 182 1368
430 2403 1617 2645 3032 70 414 70 894 -1 1317 -92 548 -330 1120 -654 1575
-181 253 -480 574 -705 757 -600 487 -1323 788 -2065 858 -66 6 -156 15 -199
21 -92 10 -304 10 -391 -1z m530 -1504 c691 -113 1278 -491 1667 -1075 384
-578 499 -1294 317 -1979 -108 -407 -322 -777 -628 -1083 -334 -334 -685 -535
-1135 -649 -206 -52 -371 -73 -591 -73 -284 0 -513 36 -778 123 -567 187
-1055 587 -1355 1110 -251 438 -361 959 -307 1460 123 1156 1030 2061 2190
2184 96 10 523 -3 620 -18z"/>
<path d="M10647 7396 c-139 -50 -276 -242 -391 -549 -188 -501 -307 -1451
-310 -2472 -1 -391 3 -437 55 -600 33 -103 73 -174 159 -281 l60 -75 1 -442
c0 -243 4 -809 8 -1257 9 -890 6 -847 67 -927 87 -114 272 -123 378 -17 84 83
76 -259 76 3386 l0 3248 -32 0 c-18 -1 -50 -7 -71 -14z"/>
<path d="M11973 7185 c-233 -63 -447 -336 -583 -741 -69 -209 -99 -488 -80
-752 13 -186 25 -248 61 -343 41 -107 97 -189 198 -294 230 -237 333 -478 333
-780 0 -156 -17 -263 -75 -458 l-42 -142 0 -1375 c0 -1374 0 -1375 21 -1420
30 -65 68 -105 126 -134 106 -53 244 -26 321 64 72 84 67 -17 67 1491 l0 1356
-34 169 c-47 232 -60 353 -53 514 7 161 36 287 95 414 54 115 100 181 200 289
168 183 224 295 257 516 17 121 19 223 5 336 -5 44 -17 138 -25 209 -26 218
-88 429 -185 634 -72 150 -143 253 -227 332 -72 68 -134 102 -211 119 -67 14
-104 13 -169 -4z"/>
<path d="M215 7048 c-2 -7 -48 -326 -100 -708 -53 -382 -100 -711 -105 -730
-14 -52 -12 -96 9 -196 37 -170 71 -236 203 -393 162 -193 224 -305 275 -500
22 -82 26 -118 26 -251 1 -174 -11 -252 -71 -470 l-37 -135 0 -1380 c0 -1378
0 -1380 21 -1425 59 -127 204 -190 335 -145 62 21 109 63 144 126 l30 54 3
1369 2 1369 -30 166 c-40 225 -50 315 -50 451 1 327 86 552 305 800 114 130
174 283 175 445 0 54 -145 1126 -201 1493 l-12 72 -40 0 -40 0 7 -247 c14
-524 31 -1405 27 -1440 -1 -10 -27 -13 -96 -13 -90 0 -95 1 -99 23 -3 12 -10
312 -16 667 -5 355 -13 727 -17 828 l-6 182 -43 0 -44 0 -2 -852 -3 -853 -86
-3 -86 -3 -6 242 c-4 133 -7 434 -7 668 0 234 -3 510 -7 614 l-6 187 -42 0
-42 0 -7 -247 c-3 -137 -11 -516 -17 -843 -5 -327 -12 -601 -14 -607 -3 -9
-31 -13 -95 -13 l-90 0 0 173 c0 94 4 330 10 522 5 193 12 500 16 683 l7 332
-37 0 c-20 0 -39 -6 -41 -12z"/>
</g>
</svg>
