<?xml version="1.0" standalone="no"?>
<!DOCTYPE svg PUBLIC "-//W3C//DTD SVG 20010904//EN"
 "http://www.w3.org/TR/2001/REC-SVG-20010904/DTD/svg10.dtd">
<svg version="1.0" xmlns="http://www.w3.org/2000/svg"
 width="897.000000pt" height="980.000000pt" viewBox="0 0 897.000000 980.000000"
 preserveAspectRatio="xMidYMid meet">

<g transform="translate(0.000000,980.000000) scale(0.100000,-0.100000)"
fill="#000000" stroke="none">
<path d="M4170 9790 c-597 -57 -1045 -265 -1346 -625 -231 -276 -364 -627
-364 -962 0 -127 33 -401 88 -733 l38 -226 -47 -45 c-116 -112 -151 -281 -113
-538 17 -118 61 -261 98 -318 38 -61 89 -103 183 -152 115 -61 132 -86 177
-261 74 -288 194 -500 414 -731 266 -279 555 -450 885 -521 136 -29 417 -32
550 -5 205 41 435 141 602 262 380 273 624 614 720 1005 13 52 28 107 33 121
19 49 64 89 154 136 135 72 190 144 238 314 30 109 53 302 45 382 -13 134 -57
239 -129 305 l-46 43 40 242 c111 677 113 859 9 1169 -135 403 -429 734 -824
928 -184 90 -429 160 -685 196 -126 18 -585 26 -720 14z"/>
<path d="M3837 4058 c-88 -24 -149 -123 -129 -211 6 -23 111 -253 235 -512
l225 -470 -29 -585 c-15 -322 -29 -612 -31 -645 l-3 -60 -142 285 c-189 381
-345 730 -624 1390 -71 167 -141 325 -157 350 -77 125 -243 180 -390 131 -109
-37 -906 -395 -1437 -646 -324 -153 -787 -383 -870 -433 -183 -109 -355 -269
-419 -392 -69 -131 -66 -73 -66 -1222 l0 -1038 4480 0 4480 0 0 1049 c0 1021
-1 1051 -20 1114 -45 144 -194 313 -396 446 -204 136 -1391 703 -2168 1036
-183 78 -240 98 -290 102 -112 9 -232 -43 -295 -129 -16 -22 -55 -101 -87
-176 -411 -978 -832 -1892 -847 -1842 -5 16 -58 1153 -57 1231 0 38 27 103
164 390 89 189 188 394 219 454 30 61 60 131 67 155 18 66 5 124 -37 171 -63
70 -58 69 -737 68 -372 -1 -616 -5 -639 -11z"/>
</g>
</svg>
