<?xml version="1.0" standalone="no"?>
<!DOCTYPE svg PUBLIC "-//W3C//DTD SVG 20010904//EN"
 "http://www.w3.org/TR/2001/REC-SVG-20010904/DTD/svg10.dtd">
<svg version="1.0" xmlns="http://www.w3.org/2000/svg"
 width="1280.000000pt" height="1280.000000pt" viewBox="0 0 1280.000000 1280.000000"
 preserveAspectRatio="xMidYMid meet">
<g transform="translate(0.000000,1280.000000) scale(0.100000,-0.100000)"
fill="#000000" stroke="none">
<path d="M2570 11964 c-93 -9 -197 -29 -323 -60 -203 -50 -319 -99 -477 -201
-201 -131 -334 -255 -457 -429 -157 -222 -210 -341 -281 -629 l-37 -150 -3
-4020 c-2 -2867 0 -4044 8 -4104 14 -103 52 -269 87 -376 98 -301 320 -602
584 -792 224 -162 380 -228 704 -301 l120 -27 3975 -3 c2798 -2 4003 0 4070 8
289 33 568 128 770 263 202 135 328 254 453 431 161 228 251 456 302 766 13
84 15 541 15 4080 0 4367 5 4026 -59 4286 -61 248 -149 422 -326 649 -88 112
-172 191 -302 283 -237 169 -392 233 -753 310 -68 14 -448 16 -4055 17 -2189
1 -3996 0 -4015 -1z m7905 -174 c4 -7 -1312 -10 -3940 -10 -2628 0 -3944 3
-3940 10 4 7 1328 10 3940 10 2612 0 3936 -3 3940 -10z m-608 -1161 c89 -12
249 -71 338 -125 126 -76 286 -235 354 -353 41 -70 90 -184 120 -276 14 -45
16 -343 18 -3057 3 -2680 2 -3008 -12 -3008 -13 0 -15 -33 -15 -245 0 -221 2
-245 17 -245 14 0 15 -13 10 -122 -7 -138 -22 -205 -72 -321 -58 -134 -121
-224 -230 -332 -110 -108 -206 -172 -336 -224 -151 -59 -183 -64 -439 -65
-166 -1 -234 2 -233 10 3 15 -190 24 -543 24 -367 0 -594 -9 -591 -24 1 -8
-704 -11 -2548 -11 -2444 0 -2553 1 -2615 18 -104 30 -227 83 -306 132 -87 54
-243 205 -301 290 -85 127 -146 281 -162 410 -15 123 -16 6564 -1 6683 16 129
84 295 170 422 39 57 200 219 257 258 44 31 196 105 268 131 33 12 87 25 120
30 93 13 6636 13 6732 0z m-8687 -239 c0 -5 -2 -10 -4 -10 -3 0 -8 5 -11 10
-3 6 -1 10 4 10 6 0 11 -4 11 -10z m10730 -21 c0 -10 -4 -19 -10 -19 -5 0 -10
12 -10 26 0 14 4 23 10 19 6 -3 10 -15 10 -26z m-9720 -369 c0 -5 -5 -10 -11
-10 -5 0 -7 5 -4 10 3 6 8 10 11 10 2 0 4 -4 4 -10z m8690 -206 c0 -8 -5 -12
-10 -9 -6 4 -8 11 -5 16 9 14 15 11 15 -7z m-4 -6691 c-10 -10 -19 5 -10 18 6
11 8 11 12 0 2 -7 1 -15 -2 -18z m-6 -69 c0 -8 -4 -12 -10 -9 -5 3 -10 10 -10
16 0 5 5 9 10 9 6 0 10 -7 10 -16z m1040 -563 c0 -11 -4 -23 -10 -26 -6 -4
-10 5 -10 19 0 14 5 26 10 26 6 0 10 -9 10 -19z m-10730 -22 c0 -11 -4 -17
-10 -14 -5 3 -10 13 -10 21 0 8 5 14 10 14 6 0 10 -9 10 -21z"/>
<path d="M3852 10419 c-90 -17 -131 -52 -504 -427 l-365 -367 -57 -113 c-305
-615 -213 -1497 255 -2432 281 -561 667 -1109 1211 -1718 173 -193 724 -745
908 -908 1150 -1026 2213 -1562 3190 -1610 320 -16 670 52 904 174 85 44 110
65 396 343 418 406 465 456 495 522 52 112 42 235 -26 336 -21 32 -353 370
-766 782 -549 548 -739 731 -774 748 -67 31 -145 43 -208 31 -114 -22 -124
-30 -516 -420 -238 -236 -385 -375 -412 -389 -60 -30 -156 -28 -247 4 -160 56
-384 210 -796 548 -439 360 -877 793 -1225 1212 -389 467 -505 728 -409 919 9
17 182 198 385 401 398 401 411 417 425 535 8 74 -16 170 -61 235 -19 28 -371
386 -782 796 -789 787 -778 777 -892 799 -60 11 -69 11 -129 -1z"/>
</g>
</svg>
