<?xml version="1.0" standalone="no"?>
<!DOCTYPE svg PUBLIC "-//W3C//DTD SVG 20010904//EN"
 "http://www.w3.org/TR/2001/REC-SVG-20010904/DTD/svg10.dtd">
<svg version="1.0" xmlns="http://www.w3.org/2000/svg"
 width="512.000000pt" height="512.000000pt" viewBox="0 0 512.000000 512.000000"
 preserveAspectRatio="xMidYMid meet">

<g transform="translate(0.000000,512.000000) scale(0.100000,-0.100000)"
fill="#000000" stroke="none">
<path d="M54 4470 c-12 -5 -29 -19 -38 -32 -15 -20 -16 -190 -16 -1880 l0
-1857 24 -28 24 -28 2512 0 2512 0 24 28 24 28 0 1859 0 1859 -24 28 -24 28
-2499 2 c-1394 1 -2507 -2 -2519 -7z m4686 -265 l-125 -125 -2055 0 -2055 0
-125 125 -125 125 2305 0 2305 0 -125 -125z m-4340 -1645 l0 -1415 -125 -125
-125 -125 0 1665 0 1665 125 -125 125 -125 0 -1415z m4570 -2 l0 -1663 -125
125 -125 125 0 1415 0 1415 122 122 c68 68 124 123 125 123 2 0 3 -748 3
-1662z m-400 644 l0 -729 -177 -6 c-318 -12 -584 -52 -926 -141 l-202 -53
-250 247 c-156 155 -267 256 -295 270 -180 92 -373 82 -519 -27 l-33 -26 -217
216 c-119 118 -231 222 -248 231 -48 24 -116 30 -170 16 -44 -12 -83 -48 -508
-471 -253 -253 -464 -459 -468 -459 -4 0 -7 374 -7 830 l0 830 2010 0 2010 0
0 -728z m-2932 -156 c15 -8 116 -104 225 -213 l197 -198 -162 -162 -163 -162
-255 -5 c-266 -4 -425 -19 -632 -60 l-120 -23 419 418 c306 306 425 419 441
419 13 0 35 -6 50 -14z m942 -358 c66 -20 115 -61 313 -256 149 -148 194 -198
183 -204 -25 -14 -296 -57 -420 -67 -111 -9 -120 -8 -223 20 -127 34 -364 84
-445 94 -32 4 -58 11 -58 15 0 4 80 85 178 181 116 115 193 182 225 197 79 39
162 45 247 20z m1990 -933 l0 -565 -2010 0 -2010 0 2 417 3 417 134 33 c321
78 607 109 915 100 371 -12 614 -60 1146 -230 395 -126 512 -155 647 -160 63
-2 75 1 94 20 28 28 29 77 3 104 -15 15 -42 21 -119 29 -96 9 -245 43 -405 92
l-74 24 129 27 c72 14 234 54 360 87 457 120 731 163 1068 168 l117 2 0 -565z
m170 -840 l125 -125 -2305 0 -2305 0 125 125 125 125 2055 0 2055 0 125 -125z"/>
<path d="M3622 3510 c-154 -32 -258 -167 -250 -325 4 -86 32 -147 95 -210 65
-63 135 -88 233 -83 147 9 249 94 286 240 13 51 14 71 4 122 -16 83 -40 125
-100 179 -72 65 -177 95 -268 77z m140 -166 c62 -32 97 -113 79 -181 -22 -81
-78 -123 -164 -123 -82 0 -157 75 -157 157 0 129 126 206 242 147z"/>
</g>
</svg>
