<?xml version="1.0" standalone="no"?>
<!DOCTYPE svg PUBLIC "-//W3C//DTD SVG 20010904//EN"
 "http://www.w3.org/TR/2001/REC-SVG-20010904/DTD/svg10.dtd">
<svg version="1.0" xmlns="http://www.w3.org/2000/svg"
 width="981.000000pt" height="982.000000pt" viewBox="0 0 981.000000 982.000000"
 preserveAspectRatio="xMidYMid meet">

<g transform="translate(0.000000,982.000000) scale(0.100000,-0.100000)"
fill="#000000" stroke="none">
<path d="M4515 9800 c-946 -83 -1802 -405 -2538 -956 -702 -525 -1235 -1200
-1579 -1999 -204 -472 -323 -944 -380 -1495 -16 -162 -17 -706 0 -870 67 -665
211 -1168 516 -1801 46 -97 65 -125 115 -172 184 -170 443 -167 617 7 107 107
146 224 127 385 -11 99 -49 193 -102 253 -17 20 -31 38 -31 42 0 3 -27 69 -60
146 -112 261 -204 566 -254 840 -50 274 -61 403 -61 740 1 336 10 450 61 730
300 1643 1613 2941 3259 3225 263 45 335 50 695 50 276 0 372 -4 480 -18 859
-115 1590 -453 2231 -1033 134 -121 305 -306 432 -466 467 -589 753 -1284 844
-2053 24 -210 24 -670 -1 -880 -89 -744 -352 -1404 -795 -1990 -169 -223 -441
-506 -656 -681 -602 -488 -1301 -785 -2075 -881 -181 -22 -725 -25 -890 -5
-651 80 -1210 277 -1738 612 -73 47 -165 114 -205 148 -118 105 -204 137 -346
130 -110 -5 -196 -43 -280 -123 -107 -102 -148 -226 -131 -390 17 -163 110
-300 250 -368 36 -17 117 -65 180 -107 621 -412 1349 -683 2080 -774 252 -32
402 -39 710 -33 364 6 617 33 920 98 1487 315 2738 1296 3401 2664 505 1043
624 2232 334 3358 -353 1377 -1297 2541 -2570 3171 -516 255 -1009 402 -1605
477 -176 23 -777 34 -955 19z"/>
<path d="M4827 8020 c-169 -29 -320 -175 -355 -346 -8 -34 -12 -503 -12 -1460
l-2 -1409 23 -60 c30 -81 49 -110 111 -173 95 -96 243 -145 371 -123 44 8 462
11 1368 11 1425 0 1362 -2 1472 57 62 34 147 126 181 195 121 249 -20 552
-289 623 -52 13 -208 15 -1202 15 l-1143 0 0 1135 c0 795 -3 1150 -11 1187
-37 177 -186 319 -365 348 -66 11 -79 11 -147 0z"/>
</g>
</svg>
